<svg width="456" height="472" viewBox="0 0 456 472" fill="none" xmlns="http://www.w3.org/2000/svg">
<path fill-rule="evenodd" clip-rule="evenodd" d="M375 0C388.807 0 400 11.1929 400 25V242.753C433.749 265.136 456 303.47 456 347C456 416.036 400.036 472 331 472C280.911 472 237.703 442.539 217.759 400H25C11.1929 400 0 388.807 0 375V25C0 11.1929 11.1929 0 25 0H375ZM209.148 375C207.088 365.998 206 356.626 206 347C206 344.651 206.065 342.317 206.193 340H85C83.0972 340 81.244 339.787 79.463 339.385L78.9905 340.013L77.4185 338.83C71.9689 337.097 67.3294 333.548 64.2122 328.892L63.0095 327.987L63.3583 327.524C61.2227 323.841 60 319.563 60 315V85C60 71.1929 71.1929 60 85 60H315C328.807 60 340 71.1929 340 85V222.319C352.238 223.19 363.988 225.822 375 229.964V50C375 36.1929 363.807 25 350 25H50C36.1929 25 25 36.1929 25 50V350C25 363.807 36.1929 375 50 375H209.148ZM314.692 223.054L219.764 152.933L99.5345 312.711C102.718 314.18 106.263 315 110 315H210.134C222.921 266.571 264.044 229.653 314.692 223.054ZM315 198.417V110C315 96.1929 303.807 85 290 85H110C96.1929 85 85 96.1929 85 110V186.454L133.743 125.558L139.315 118.597L146.867 123.338L194.501 153.242L209.742 132.987L215.702 125.067L223.674 130.956L315 198.417ZM85 218.46V290C85 292.546 85.3806 295.003 86.0879 297.317L182.433 169.28L143.785 145.018L85 218.46ZM431 347C431 402.228 386.228 447 331 447C275.772 447 231 402.228 231 347C231 291.772 275.772 247 331 247C386.228 247 431 291.772 431 347ZM261 347C261 341.477 265.477 337 271 337H320.5V287.5C320.5 281.977 324.977 277.5 330.5 277.5C336.023 277.5 340.5 281.977 340.5 287.5V337H390C395.523 337 400 341.477 400 347C400 352.523 395.523 357 390 357H340.5V406.5C340.5 412.023 336.023 416.5 330.5 416.5C324.977 416.5 320.5 412.023 320.5 406.5V357H271C265.477 357 261 352.523 261 347Z" fill="black"/>
</svg>
